<?xml version="1.0" standalone="no"?>
<!DOCTYPE svg PUBLIC "-//W3C//DTD SVG 20010904//EN"
 "http://www.w3.org/TR/2001/REC-SVG-20010904/DTD/svg10.dtd">
<svg version="1.0" xmlns="http://www.w3.org/2000/svg"
 width="225.000000pt" height="225.000000pt" viewBox="0 0 225.000000 225.000000"
 preserveAspectRatio="xMidYMid meet">

<g transform="translate(0.000000,225.000000) scale(0.100000,-0.100000)"
fill="#000000" stroke="none">
<path d="M1101 2237 c-7 -9 -12 -88 -13 -217 l-3 -204 -277 -220 -278 -220 0
-138 0 -138 -253 0 c-183 0 -256 -3 -265 -12 -17 -17 -17 -1059 0 -1076 17
-17 2209 -17 2226 0 17 17 17 1059 0 1076 -9 9 -82 12 -265 12 l-253 0 0 138
0 138 -277 220 -278 219 -3 183 -2 183 157 -3 158 -3 0 -65 0 -65 -109 -3
c-128 -3 -159 -18 -120 -56 12 -13 40 -16 142 -16 70 0 134 5 142 10 19 12 28
217 11 249 -11 20 -19 21 -220 21 -161 0 -211 -3 -220 -13z m293 -693 l188
-149 -103 -5 c-100 -5 -104 -6 -107 -29 -2 -13 2 -28 10 -32 7 -5 70 -9 141
-9 l127 0 0 -574 c0 -509 2 -576 16 -590 12 -12 20 -13 35 -6 18 10 19 25 19
350 l0 340 230 0 230 0 0 -385 0 -385 -350 0 -350 0 -2 328 -3 327 -350 0
-350 0 -3 -327 -2 -328 -350 0 -350 0 0 385 0 385 230 0 230 0 0 -340 c0 -325
1 -340 19 -350 15 -7 23 -6 35 6 14 14 16 81 16 590 l0 574 334 0 c354 0 363
1 354 47 -3 17 -25 18 -312 23 l-308 5 228 182 229 181 40 -32 c22 -18 125
-99 229 -182z m-864 -574 l0 -60 -230 0 -230 0 0 60 0 60 230 0 230 0 0 -60z
m1650 0 l0 -60 -230 0 -230 0 0 60 0 60 230 0 230 0 0 -60z m-1090 -535 l0
-225 -125 0 -125 0 0 225 0 225 125 0 125 0 0 -225z m320 0 l0 -225 -125 0
-125 0 0 225 0 225 125 0 125 0 0 -225z m0 -327 l0 -38 -285 0 -285 0 0 38 0
37 285 0 285 0 0 -37z"/>
<path d="M1055 1186 c-65 -28 -113 -116 -100 -184 34 -191 305 -191 340 0 13
69 -35 157 -102 184 -41 17 -99 17 -138 0z m134 -82 c38 -32 49 -80 27 -122
-19 -38 -47 -54 -91 -54 -44 0 -72 16 -91 54 -33 64 18 148 91 148 21 0 45 -9
64 -26z"/>
<path d="M184 717 c-3 -8 -4 -54 -2 -103 3 -79 5 -89 22 -92 11 -3 26 4 33 14
17 23 18 165 1 182 -16 16 -47 15 -54 -1z"/>
<path d="M356 715 c-3 -9 -6 -52 -6 -95 0 -84 12 -107 50 -95 19 6 21 13 18
103 -3 96 -3 97 -29 100 -17 2 -29 -3 -33 -13z"/>
<path d="M1837 723 c-4 -3 -7 -48 -7 -99 0 -85 2 -93 20 -99 38 -12 50 11 50
95 0 43 -3 85 -6 94 -6 16 -45 22 -57 9z"/>
<path d="M2012 718 c-17 -17 -16 -159 1 -182 7 -10 22 -16 33 -14 17 3 19 12
19 103 0 93 -1 100 -20 103 -11 1 -26 -3 -33 -10z"/>
</g>
</svg>
